<svg display="none" xmlns="http://www.w3.org/2000/svg">
 <symbol id="mastodon-svg-logo-full" viewBox="0 0 713.4 175.9" id=".8419020136345232" xmlns="http://www.w3.org/2000/svg">
 <path class="ast0" d="M199.4 40.7c.2-18.9-15.7-32.4-25.3-38.8-4-2.7-9.2-2.5-13 .4-3.9 3.1-5.3 8.4-3.5 13.1 2.5 6.9 2.9 12.2 1.1 14.3-2 2.5-8.4 3-13.6 2.5l-3.6-5.7c-4.5-7.2-13.7-9.8-21.3-5.9L110 25.8c-6.5 3.3-14.1 3.3-20.6 0l-10.2-5.2c-7.6-4-17-1.4-21.4 5.9l-3.6 5.7c-5.2.5-11.5 0-13.6-2.5-1.8-2-1.4-7.4 1.1-14.3 1.8-4.7.3-9.9-3.5-13.1-3.8-2.9-9.1-3.1-13-.4C15.7 8.3-.2 21.8 0 40.7c.1 13.6 8.6 26.5 25.1 38.4l-6.8 11c9.9 16.4 26.4 7.2 26.4 7.2s-1.4 21.9 15.8 45.4c-.5 2.2-.8 4.4-.9 6.7-.1 14.6 12.5 26.5 27.1 26.5h23.1c17.6 0 30.2-11.9 30.1-26.5 0-2.3-.3-4.5-.9-6.7 17.2-23.5 15.8-45.4 15.8-45.4s16.3 9.3 26.2-7.2l-6.9-11c16.7-11.9 25.2-24.8 25.3-38.4zM42.7 50.9l-9.6 13.9c-8.8-6.6-16.7-15.1-16.9-24.2 0-5.8 3.1-11.2 6.9-15.5-.3 5.6 1.5 11.1 5.1 15.4 4.2 4.5 9.8 7.3 15.9 7.9l-1.4 2.5zm29.5 48.7c-7.9-1.2-13.4-8.5-12.2-16.4.2-1.5 1.6-2.5 3.1-2.4l23.1 3.3c1.5.2 2.6 1.7 2.4 3.2-1 7.1-7.1 12.4-14.3 12.5-.7 0-1.4-.1-2.1-.2zm14.1 60.9c-4.1.1-7.5-3.2-7.5-7.3-.1-4.1 3.2-7.5 7.3-7.5 4.1-.1 7.5 3.2 7.5 7.3v.2c0 4-3.3 7.2-7.3 7.3zm26.9 0c-4.1 0-7.4-3.3-7.4-7.4s3.3-7.4 7.4-7.4 7.4 3.3 7.4 7.4v.1c0 4-3.4 7.3-7.4 7.3zm23.6-66.6c-2.3 3.1-5.7 5.1-9.6 5.7-.7.1-1.4.1-2 .1-7.2 0-13.3-5.3-14.3-12.5-.2-1.5.9-3 2.4-3.2l23.1-3.3c1.5-.2 3 .9 3.2 2.4.5 3.9-.5 7.8-2.8 10.8zm29.5-29.1l-9.6-13.9-1.6-2.5c6.1-.6 11.7-3.4 15.9-7.9 3.6-4.3 5.4-9.8 5.1-15.4 3.9 4.4 7 9.7 7 15.5-.1 9.1-8.1 17.6-16.8 24.2z" fill="#3088d4"/>
 <path class="ast1" d="M331.8 47.2v112h-24v-39.5c-5.3 6.1-13.1 9.8-23.8 9.8-21 0-38.2-18.4-38.2-42.2S263 44.9 284 44.9c10.7 0 18.6 3.7 23.8 9.8v-7.5h24zm-24 40c0-12-8-19.5-19-19.5s-19 7.5-19 19.5 8 19.5 19 19.5 19-7.5 19-19.5zM415.5 47.2v80h-24v-7.5c-4.3 5.9-12.3 9.8-22.9 9.8-16.2 0-29.9-11.5-29.9-33.1V47.2h24v45.6c0 9.9 6.2 14.6 13.9 14.6 8.8 0 14.9-5.1 14.9-16.5V47.2h24zM464.1 108c6.6 0 12.2-2.6 15.4-6.1l19.2 11c-7.8 10.9-19.7 16.5-34.9 16.5-27.4 0-44.3-18.4-44.3-42.2S436.8 45 462.1 45c23.4 0 40.6 18.1 40.6 42.2 0 3.4-.3 6.6-1 9.6h-56.8c3.1 8.3 10.4 11.2 19.2 11.2zm14.7-29.1c-2.6-9.3-9.8-12.6-17-12.6-9.1 0-15.2 4.5-17.4 12.6h34.4z" fill="#f9f9f9"/>
 <path class="ast1" d="M579.5 47.2l-27.4 77.6c-9 25.4-23.2 35.5-45.6 34.4v-22.4c11.2 0 16.5-3.5 20-13.3l-31.8-76.3h26.4l17.8 49 15-49h25.6z" fill="#f9f9f9"/>
 </symbol>
</svg>
