<?xml version="1.0" encoding="utf-8"?>
<!-- Generator: Adobe Illustrator 22.0.0, SVG Export Plug-In . SVG Version: 6.00 Build 0)  -->
<svg version="1.1" id="Laag_1" xmlns="http://www.w3.org/2000/svg" xmlns:xlink="http://www.w3.org/1999/xlink" x="0px" y="0px"
	 width="216.4px" height="232px" viewBox="0 0 216.4 232" style="enable-background:new 0 0 216.4 232;" xml:space="preserve">
<style type="text/css">
	.st0{fill:#3088D4;}
</style>
<path class="st0" d="M216.4,65.3c0.2-20.5-17.1-35.2-27.4-42.1c-4.3-2.9-10-2.7-14.1,0.4c-4.2,3.4-5.8,9.1-3.8,14.2
	c2.7,7.5,3.2,13.2,1.2,15.6c-2.2,2.7-9.1,3.2-14.8,2.7l-3.9-6.2c-4.8-7.8-14.9-10.6-23.1-6.4l-11,5.6c-7,3.6-15.4,3.6-22.4,0
	l-11-5.6c-8.2-4.3-18.4-1.5-23.3,6.4l-3.9,6.2c-5.6,0.5-12.4,0-14.8-2.7c-2-2.2-1.5-8.1,1.2-15.6c1.9-5.1,0.4-10.8-3.8-14.2
	c-4.1-3.2-9.8-3.4-14.1-0.4C17.1,30.1-0.2,44.8,0,65.3C0.2,80,9.3,94,27.3,106.9l-7.4,12c10.8,17.8,28.6,7.8,28.6,7.8
	s-1.5,23.8,17.2,49.2c-0.6,2.4-0.9,4.8-0.9,7.3c-0.2,15.9,13.6,28.7,29.4,28.7h25.1c19.1,0,32.8-13,32.6-28.7c0-2.5-0.3-4.9-0.9-7.3
	c18.7-25.5,17.2-49.2,17.2-49.2s17.7,10,28.4-7.8l-7.5-12C207.1,94,216.3,80,216.4,65.3z M46.4,76.3L36,91.4
	C26.5,84.2,17.8,75,17.7,65.1c0-6.3,3.3-12.1,7.5-16.8c-0.4,6.1,1.6,12,5.5,16.7c4.5,4.9,10.7,7.9,17.3,8.6L46.4,76.3z M78.4,129.2
	c-8.6-1.3-14.5-9.3-13.2-17.8c0.2-1.6,1.7-2.8,3.3-2.6l25.1,3.6c1.7,0.3,2.8,1.8,2.6,3.5c-1.1,7.7-7.7,13.5-15.6,13.5
	C79.9,129.3,79.1,129.3,78.4,129.2z M93.6,195.2c-4.5,0.1-8.1-3.5-8.2-7.9c-0.1-4.5,3.5-8.1,7.9-8.2c4.5-0.1,8.1,3.5,8.2,7.9
	c0,0.1,0,0.1,0,0.2C101.5,191.6,98,195.1,93.6,195.2L93.6,195.2z M122.8,195.2c-4.5,0-8.1-3.6-8.1-8.1c0-4.5,3.6-8.1,8.1-8.1
	c4.5,0,8.1,3.6,8.1,8.1c0,0,0,0.1,0,0.1C130.8,191.6,127.2,195.2,122.8,195.2z M148.4,123c-2.5,3.4-6.2,5.6-10.4,6.2
	c-0.7,0.1-1.5,0.2-2.2,0.2c-7.8,0-14.5-5.8-15.6-13.5c-0.2-1.7,0.9-3.2,2.6-3.5l25.1-3.6c1.7-0.2,3.2,0.9,3.5,2.6
	C152,115.5,150.9,119.7,148.4,123z M180.4,91.3L170,76.3l-1.7-2.7c6.6-0.7,12.7-3.7,17.3-8.6c3.9-4.7,5.9-10.6,5.5-16.7
	c4.2,4.7,7.6,10.5,7.6,16.8C198.6,75,189.9,84.2,180.4,91.3z"/>
</svg>
