<svg display="none" xmlns="http://www.w3.org/2000/svg">
 <symbol id="mastodon-svg-logo" viewBox="0 0 216.4 232" id=".81857634745682" xmlns="http://www.w3.org/2000/svg">
 <path class="ast0" d="M216.4 65.3c.2-20.5-17.1-35.2-27.4-42.1-4.3-2.9-10-2.7-14.1.4-4.2 3.4-5.8 9.1-3.8 14.2 2.7 7.5 3.2 13.2 1.2 15.6-2.2 2.7-9.1 3.2-14.8 2.7l-3.9-6.2c-4.8-7.8-14.9-10.6-23.1-6.4l-11 5.6c-7 3.6-15.4 3.6-22.4 0l-11-5.6c-8.2-4.3-18.4-1.5-23.3 6.4l-3.9 6.2c-5.6.5-12.4 0-14.8-2.7-2-2.2-1.5-8.1 1.2-15.6 1.9-5.1.4-10.8-3.8-14.2-4.1-3.2-9.8-3.4-14.1-.4C17.1 30.1-.2 44.8 0 65.3.2 80 9.3 94 27.3 106.9l-7.4 12c10.8 17.8 28.6 7.8 28.6 7.8s-1.5 23.8 17.2 49.2c-.6 2.4-.9 4.8-.9 7.3-.2 15.9 13.6 28.7 29.4 28.7h25.1c19.1 0 32.8-13 32.6-28.7 0-2.5-.3-4.9-.9-7.3 18.7-25.5 17.2-49.2 17.2-49.2s17.7 10 28.4-7.8l-7.5-12c18-12.9 27.2-26.9 27.3-41.6zm-170 11L36 91.4C26.5 84.2 17.8 75 17.7 65.1c0-6.3 3.3-12.1 7.5-16.8-.4 6.1 1.6 12 5.5 16.7 4.5 4.9 10.7 7.9 17.3 8.6l-1.6 2.7zm32 52.9c-8.6-1.3-14.5-9.3-13.2-17.8.2-1.6 1.7-2.8 3.3-2.6l25.1 3.6c1.7.3 2.8 1.8 2.6 3.5-1.1 7.7-7.7 13.5-15.6 13.5-.7-.1-1.5-.1-2.2-.2zm15.2 66c-4.5.1-8.1-3.5-8.2-7.9-.1-4.5 3.5-8.1 7.9-8.2 4.5-.1 8.1 3.5 8.2 7.9v.2c0 4.4-3.5 7.9-7.9 8zm29.2 0c-4.5 0-8.1-3.6-8.1-8.1s3.6-8.1 8.1-8.1 8.1 3.6 8.1 8.1v.1c-.1 4.4-3.7 8-8.1 8zm25.6-72.2c-2.5 3.4-6.2 5.6-10.4 6.2-.7.1-1.5.2-2.2.2-7.8 0-14.5-5.8-15.6-13.5-.2-1.7.9-3.2 2.6-3.5l25.1-3.6c1.7-.2 3.2.9 3.5 2.6.6 4.1-.5 8.3-3 11.6zm32-31.7l-10.4-15-1.7-2.7c6.6-.7 12.7-3.7 17.3-8.6 3.9-4.7 5.9-10.6 5.5-16.7 4.2 4.7 7.6 10.5 7.6 16.8-.1 9.9-8.8 19.1-18.3 26.2z" fill="#fff"/>
 </symbol>
</svg>
